<svg width="133" height="133" viewBox="0 0 133 133" fill="none" xmlns="http://www.w3.org/2000/svg">
<rect x="2" y="5" width="128" height="128" rx="23" fill="#24A32A"/>
<path fill-rule="evenodd" clip-rule="evenodd" d="M84.2797 38.3667L84.4988 38.422C88.1509 39.3276 91.0428 40.043 93.317 40.8043C95.6445 41.5811 97.5436 42.4683 99.1074 43.8222C101.383 45.7948 102.975 48.3473 103.682 51.1567C104.171 53.0847 104.054 55.0495 103.616 57.2999C103.194 59.5042 102.421 62.1783 101.441 65.5523L99.6618 71.6894C98.6857 75.0634 97.9088 77.7375 97.0887 79.8435C96.2454 81.9926 95.2859 83.7487 93.8217 85.1947C91.7581 87.2322 89.1054 88.6792 86.1788 89.3639C85.3213 91.1817 84.0718 92.8187 82.5067 94.1747C80.9429 95.5286 79.0438 96.4159 76.7164 97.1957C74.4421 97.957 71.5503 98.6724 67.9015 99.5781L67.679 99.6333C64.0269 100.536 61.1384 101.251 58.7545 101.647C56.3209 102.049 54.196 102.157 52.1076 101.709C49.0698 101.053 46.3106 99.5782 44.1791 97.472C42.7183 96.029 41.7555 94.2729 40.9121 92.1208C40.0921 90.0178 39.3185 87.3438 38.339 83.9667L36.5594 77.8326C35.5833 74.4555 34.8064 71.7846 34.3814 69.5802C33.9465 67.3299 33.8303 65.365 34.315 63.4339C35.0245 60.6249 36.619 58.0735 38.8968 56.1026C40.4573 54.7517 42.3564 53.8614 44.6838 53.0816C46.9581 52.3233 49.8499 51.608 53.4987 50.7023L53.6116 50.6716L56.105 50.0576C57.4065 45.7625 58.5487 42.7262 60.7798 40.525C62.9117 38.4198 65.6708 36.9465 68.7083 36.2913C70.7966 35.8431 72.9182 35.9505 75.3552 36.3527C77.7357 36.7457 80.6275 37.4641 84.2797 38.3667ZM54.601 55.1969C50.9721 56.0964 48.3725 56.7473 46.3738 57.4135C44.3485 58.0889 43.1632 58.7152 42.3 59.4643C40.7417 60.813 39.6509 62.5588 39.1658 64.4808C38.9001 65.5492 38.9035 66.8141 39.2853 68.7697C39.6671 70.7561 40.3876 73.2429 41.4002 76.7428L43.12 82.6742C44.1327 86.1741 44.8565 88.6608 45.5968 90.5551C46.3273 92.4278 47.0046 93.5269 47.8147 94.3251C49.2733 95.7661 51.1612 96.7747 53.2398 97.2233C54.3919 97.4689 55.7631 97.4628 57.878 97.1128C60.0261 96.7597 62.7154 96.0935 66.5004 95.1571C70.2853 94.2177 72.9746 93.5515 75.0265 92.8638C77.0484 92.1884 78.237 91.5621 79.1003 90.816C79.5584 90.4169 79.9746 89.9881 80.3486 89.5297C79.7327 89.4484 79.1193 89.3511 78.5093 89.238C76.2781 88.8266 73.5955 88.1635 70.292 87.3438L70.0994 87.2977C66.4506 86.392 63.5587 85.6767 61.2844 84.9153C58.957 84.1386 57.0579 83.2513 55.4941 81.8974C53.217 79.9252 51.6236 77.3728 50.9157 74.563C50.4309 72.635 50.5472 70.6701 50.9821 68.4198C51.4071 66.2154 52.184 63.5414 53.1601 60.1674L54.601 55.1969ZM74.4786 40.8872C72.3604 40.5342 70.9925 40.528 69.8404 40.7767C67.7619 41.2254 65.8739 42.2339 64.4153 43.6749C62.9678 45.1025 62.0746 47.3129 60.5275 52.5566L59.7207 55.3258L58.0008 61.2572C56.9882 64.7571 56.2677 67.2439 55.8859 69.2303C55.5041 71.1859 55.4975 72.4538 55.7664 73.5192C56.2516 75.4412 57.3423 77.187 58.9006 78.5357C59.7638 79.2848 60.9524 79.908 62.9744 80.5865C65.0262 81.2711 67.7155 81.9373 71.5005 82.8768C74.9036 83.7211 77.4269 84.3443 79.4788 84.7188C81.5206 85.0965 82.9084 85.1886 84.0439 85.0596C84.2918 85.0289 84.5309 84.99 84.7611 84.943C86.8396 84.4943 88.7276 83.4857 90.1862 82.0448C90.9963 81.2466 91.6736 80.1475 92.404 78.2778C93.1444 76.3805 93.8649 73.8937 94.8808 70.3938L96.6007 64.4624C97.6133 60.9625 98.3338 58.4757 98.7156 56.4894C99.0941 54.5338 99.104 53.2658 98.8351 52.2005C98.3499 50.2785 97.2592 48.5327 95.7009 47.184C94.8377 46.4349 93.6491 45.8116 91.6271 45.1332C89.5719 44.4485 86.886 43.7823 83.101 42.8429C79.3161 41.9065 76.6268 41.2403 74.4786 40.8872ZM66.5435 62.2673C66.6283 61.9752 66.7744 61.7013 66.9736 61.4615C67.1729 61.2216 67.4212 61.0203 67.7046 60.8692C67.9879 60.7181 68.3007 60.6201 68.625 60.5808C68.9493 60.5415 69.2788 60.5617 69.5947 60.6402L85.631 64.6128C86.2512 64.7853 86.7743 65.1744 87.0894 65.6976C87.4045 66.2208 87.4868 66.8369 87.3188 67.4153C87.1507 67.9936 86.7456 68.4887 86.1894 68.7955C85.6332 69.1022 84.9696 69.1965 84.3394 69.0583L68.3032 65.0856C67.6659 64.9274 67.1226 64.5416 66.7927 64.0132C66.4627 63.4847 66.3731 62.8568 66.5435 62.2673ZM63.9638 71.1644C64.0485 70.872 64.1948 70.5978 64.3942 70.3577C64.5937 70.1176 64.8424 69.9162 65.1261 69.765C65.4098 69.6139 65.723 69.516 66.0477 69.4769C66.3724 69.4378 66.7022 69.4583 67.0183 69.5373L76.6367 71.9197C77.2747 72.0776 77.8187 72.4635 78.149 72.9923C78.4793 73.5211 78.5689 74.1496 78.3981 74.7395C78.2272 75.3294 77.81 75.8324 77.2381 76.1379C76.6662 76.4433 75.9865 76.5262 75.3485 76.3682L65.7268 73.9827C65.0895 73.8245 64.5462 73.4387 64.2163 72.9103C63.8863 72.3818 63.7967 71.7539 63.9671 71.1644" fill="white"/>
</svg>
