<svg xmlns="http://www.w3.org/2000/svg" x="0px" y="0px" width="48" height="48" viewBox="0,0,256,256">
<g transform=""><g fill="#33c14e" fill-rule="nonzero" stroke="none" stroke-width="1" stroke-linecap="butt" stroke-linejoin="miter" stroke-miterlimit="10" stroke-dasharray="" stroke-dashoffset="0" font-family="none" font-weight="none" font-size="none" text-anchor="none" style="mix-blend-mode: normal"><path d="M0,256v-256h256v256z" id="bgRectangle"></path></g><g fill="#ffffff" fill-rule="nonzero" stroke="none" stroke-width="1" stroke-linecap="butt" stroke-linejoin="miter" stroke-miterlimit="10" stroke-dasharray="" stroke-dashoffset="0" font-family="none" font-weight="none" font-size="none" text-anchor="none" style="mix-blend-mode: normal"><g transform="scale(4,4)"><path d="M56.19727,5.04883c-0.559,0.03925 -1.12722,0.29323 -1.57422,0.74023l-1.87109,1.84961l3.68359,3.70898l1.83789,-1.88281c0.919,-0.967 0.99222,-2.2988 0.07422,-3.2168l-0.62891,-0.65234c-0.411,-0.411 -0.96248,-0.58612 -1.52148,-0.54687zM50.97266,9.41406l-19.74414,19.76953l-2.17578,4.78711c-0.242,0.556 0.38736,1.1838 0.94336,0.9668l4.95508,-2.08008l19.74414,-19.74414zM17.02148,11.02148c-3.309,0 -6,2.691 -6,6v29.95703c0,3.309 2.691,6 6,6h29.95703c3.309,0 6,-2.691 6,-6v-27.90625l-3.99805,4v23.90625c0,1.103 -0.897,2 -2,2h-29.95898c-1.103,0 -2,-0.897 -2,-2v-29.95703c0,-1.103 0.897,-2 2,-2h24.11328l3.99414,-4z"></path></g></g></g>
</svg>