<svg width="555" height="420" viewBox="0 0 555 420" fill="none" xmlns="http://www.w3.org/2000/svg">
<rect x="203.5" y="30.5" width="302" height="222" rx="39.5" stroke="#969696" stroke-dasharray="8 20"/>
<path fill-rule="evenodd" clip-rule="evenodd" d="M246.321 69.8695C282.352 66.7914 318.543 50.375 352.688 62.2666C388.638 74.7873 415.508 104.911 437.01 136.282C459.559 169.179 486.091 207.01 478.755 246.193C471.361 285.684 489.053 320.403 463.002 351.025C442.114 375.578 369.208 394.364 340.383 408.842C311.874 423.161 278.082 414.916 246.321 411.812C217.147 408.961 189.287 402.918 162.323 391.44C132.545 378.764 103.902 364.343 81.0463 341.456C53.5679 313.94 13.2823 284.843 17.2755 246.193C21.3856 206.412 74.6933 192.942 99.6245 161.639C119.966 136.098 122.273 96.9108 149.969 79.5845C177.797 62.1759 213.6 72.6647 246.321 69.8695Z" fill="#FBFBFB"/>
<path d="M280 91C280 91.5528 279.553 92 279 92C278.447 92 278 91.5528 278 91C278 90.4472 278.447 90 279 90C279.553 90 280 90.4472 280 91Z" fill="#E2E2E2"/>
<path d="M174 262H386V266.203C386 267.196 385.167 268 384.145 268H176.654C175.189 268 174 266.848 174 265.429V262Z" fill="#A8A8A8"/>
<path d="M153.305 86H405.695C408.624 86 411 88.3741 411 91.3V255.168C411 260.595 406.592 265 401.16 265H157.84C152.408 265 148 260.595 148 255.168V91.3C148 88.3741 150.376 86 153.305 86Z" fill="#A8A8A8"/>
<path d="M403 256.258V95.7422C403 95.3323 402.668 95 402.259 95L156.741 95C156.332 95 156 95.3323 156 95.7422V256.258C156 256.668 156.332 257 156.741 257H402.259C402.668 257 403 256.668 403 256.258Z" fill="white"/>
<path d="M276.988 156.52C276.988 157.625 276.092 158.52 274.988 158.52L253 158.52C251.895 158.52 251 159.416 251 160.52L251 194.48C251 195.584 251.895 196.48 253 196.48L274.988 196.48C276.092 196.48 276.988 197.375 276.988 198.48L276.988 207.536C276.988 209.4 279.312 210.251 280.515 208.828L305.908 178.791C306.539 178.046 306.539 176.954 305.908 176.209L280.515 146.172C279.312 144.749 276.988 145.6 276.988 147.464L276.988 156.52Z" fill="#1D1D1D"/>
<path d="M463.998 326.951V325.566L91 325V326.953C91 331.397 95.3802 335 100.783 335H454.217C459.62 335 464 331.399 464 326.953L463.998 326.951Z" fill="#A8A8A8"/>
<path d="M459.993 327H95.0045C90.9916 327 89.8105 325.096 92.3042 322.805L150.542 269.283C152.141 267.813 154.225 267 156.387 267H398.613C400.775 267 402.859 267.815 404.458 269.283L462.696 322.805C465.19 325.096 464.008 327 459.996 327H459.993Z" fill="white"/>
<g opacity="0.3">
<path d="M176.725 276H160.839C160.158 276 159.822 275.776 160.095 275.502L163.108 272.47C163.365 272.212 164.114 272 164.774 272H180.133C180.793 272 181.154 272.212 180.937 272.47L178.386 275.502C178.156 275.776 177.409 276 176.725 276Z" fill="#D4D4D4"/>
<path d="M196.423 276H180.876C180.209 276 179.844 275.776 180.064 275.502L182.511 272.47C182.72 272.212 183.418 272 184.064 272H199.095C199.741 272 200.13 272.212 199.96 272.47L197.966 275.502C197.786 275.776 197.092 276 196.423 276Z" fill="#D4D4D4"/>
<path d="M216.941 276H200.961C200.276 276 199.862 275.776 200.042 275.502L202.044 272.47C202.214 272.212 202.897 272 203.559 272H219.009C219.673 272 220.108 272.212 219.977 272.47L218.442 275.502C218.304 275.776 217.629 276 216.941 276Z" fill="#D4D4D4"/>
<path d="M257.153 276H241.104C240.415 276 239.923 275.776 240.01 275.502L240.986 272.47C241.07 272.212 241.683 272 242.349 272H257.865C258.533 272 259.042 272.212 258.997 272.47L258.49 275.502C258.443 275.776 257.842 276 257.153 276Z" fill="#D4D4D4"/>
<path d="M236.61 276H221.003C220.334 276 219.892 275.776 220.023 275.502L221.474 272.47C221.598 272.212 222.228 272 222.877 272H237.966C238.615 272 239.075 272.212 238.99 272.47L237.993 275.502C237.904 275.776 237.28 276 236.61 276Z" fill="#D4D4D4"/>
<path d="M296.861 276H281.281C280.613 276 280.06 275.776 280.056 275.502L280 272.47C279.996 272.212 280.522 272 281.167 272H296.23C296.878 272 297.443 272.212 297.486 272.47L297.997 275.502C298.043 275.776 297.534 276 296.865 276H296.861Z" fill="#D4D4D4"/>
<path d="M317.91 276H301.919C301.233 276 300.628 275.776 300.577 275.502L300.003 272.47C299.954 272.212 300.458 272 301.123 272H316.582C317.247 272 317.861 272.212 317.95 272.47L318.988 275.502C319.082 275.776 318.598 276 317.912 276H317.91Z" fill="#D4D4D4"/>
<path d="M337.008 276H321.459C320.792 276 320.166 275.776 320.071 275.502L319.012 272.47C318.921 272.212 319.375 272 320.021 272H335.055C335.701 272 336.333 272.212 336.463 272.47L337.975 275.502C338.111 275.776 337.678 276 337.008 276Z" fill="#D4D4D4"/>
<path d="M358.05 276H342.127C341.444 276 340.765 275.776 340.622 275.502L339.025 272.47C338.89 272.212 339.319 272 339.979 272H355.372C356.034 272 356.717 272.212 356.893 272.47L358.955 275.502C359.141 275.776 358.735 276 358.05 276Z" fill="#D4D4D4"/>
<path d="M394.823 276H362.115C361.159 276 360.157 275.685 359.891 275.3L358.061 272.661C357.809 272.296 358.36 272 359.285 272H390.906C391.83 272 392.881 272.296 393.243 272.661L395.867 275.3C396.249 275.683 395.779 276 394.823 276Z" fill="#D4D4D4"/>
<path d="M276.781 276H261.15C260.48 276 259.963 275.776 260.002 275.502L260.448 272.47C260.486 272.212 261.048 272 261.698 272H276.81C277.46 272 277.992 272.212 277.992 272.47L278 275.502C278 275.776 277.452 276 276.781 276Z" fill="#D4D4D4"/>
<path d="M383.587 282H400.139C400.851 282 401.189 281.718 400.893 281.376L397.624 277.587C397.345 277.263 396.557 277 395.871 277H379.891C379.205 277 378.835 277.263 379.072 277.587L381.84 281.376C382.09 281.718 382.877 282 383.589 282H383.587Z" fill="#D4D4D4"/>
<path d="M362.848 282H379.097C379.796 282 380.167 281.718 379.927 281.376L377.26 277.587C377.032 277.263 376.296 277 375.622 277H359.935C359.261 277 358.86 277.263 359.045 277.587L361.218 281.376C361.415 281.718 362.147 282 362.846 282H362.848Z" fill="#D4D4D4"/>
<path d="M342.283 282H359.005C359.724 282 360.148 281.718 359.952 281.376L357.769 277.587C357.584 277.263 356.865 277 356.171 277H340.027C339.334 277 338.884 277.263 339.026 277.587L340.704 281.376C340.855 281.718 341.568 282 342.285 282H342.283Z" fill="#D4D4D4"/>
<path d="M299.875 282H315.905C316.594 282 317.081 281.718 316.989 281.376L315.97 277.587C315.882 277.263 315.269 277 314.604 277H299.128C298.463 277 297.956 277.263 298.003 277.587L298.537 281.376C298.586 281.718 299.187 282 299.877 282H299.875Z" fill="#D4D4D4"/>
<path d="M320.567 282H336.956C337.66 282 338.116 281.718 337.974 281.376L336.383 277.587C336.247 277.263 335.58 277 334.9 277H319.078C318.398 277 317.919 277.263 318.011 277.587L319.105 281.376C319.203 281.718 319.862 282 320.565 282H320.567Z" fill="#D4D4D4"/>
<path d="M258.198 282H274.65C275.358 282 275.939 281.718 275.943 281.376L276 277.587C276.004 277.263 275.45 277 274.768 277H258.884C258.202 277 257.606 277.263 257.557 277.587L257.003 281.376C256.953 281.718 257.49 282 258.198 282Z" fill="#D4D4D4"/>
<path d="M237.083 282H253.062C253.749 282 254.352 281.718 254.407 281.376L254.996 277.587C255.047 277.263 254.546 277 253.883 277H238.457C237.795 277 237.179 277.263 237.087 277.587L236.013 281.376C235.915 281.718 236.398 282 237.083 282Z" fill="#D4D4D4"/>
<path d="M216.031 282H232.371C233.073 282 233.732 281.718 233.836 281.376L234.987 277.587C235.085 277.263 234.61 277 233.934 277H218.16C217.482 277 216.813 277.263 216.673 277.587L215.028 281.376C214.88 281.718 215.33 282 216.033 282H216.031Z" fill="#D4D4D4"/>
<path d="M194.987 282H211.654C212.371 282 213.083 281.718 213.241 281.376L214.972 277.587C215.119 277.263 214.674 277 213.983 277H197.892C197.201 277 196.48 277.263 196.288 277.587L194.051 281.376C193.849 281.718 194.268 282 194.984 282H194.987Z" fill="#D4D4D4"/>
<path d="M156.191 282H189.695C190.675 282 191.709 281.604 191.991 281.126L193.933 277.825C194.2 277.371 193.645 277 192.698 277H160.352C159.405 277 158.319 277.371 157.934 277.825L155.146 281.126C154.74 281.606 155.209 282 156.189 282H156.191Z" fill="#D4D4D4"/>
<path d="M279.289 282H295.791C296.501 282 297.042 281.718 296.997 281.376L296.501 277.587C296.458 277.263 295.865 277 295.18 277H279.249C278.564 277 278.004 277.263 278.004 277.587L278 281.376C278 281.718 278.579 282 279.289 282Z" fill="#D4D4D4"/>
<path d="M367.017 287H404.837C405.813 287 406.264 286.648 405.842 286.218L403.402 283.742C402.999 283.332 401.896 283 400.95 283H364.295C363.348 283 362.797 283.334 363.07 283.742L364.721 286.218C365.006 286.646 366.042 287 367.017 287Z" fill="#D4D4D4"/>
<path d="M344.515 287H361.974C362.723 287 363.159 286.719 362.946 286.375L360.572 282.586C360.369 282.264 359.615 282 358.891 282H342.062C341.34 282 340.874 282.262 341.03 282.586L342.852 286.375C343.017 286.719 343.767 287 344.517 287H344.515Z" fill="#D4D4D4"/>
<path d="M387.912 287H405.12C405.859 287 406.2 286.719 405.88 286.375L402.34 282.586C402.039 282.264 401.209 282 400.498 282H383.912C383.2 282 382.825 282.262 383.08 282.586L386.076 286.375C386.348 286.719 387.175 287 387.914 287H387.912Z" fill="#D4D4D4"/>
<path d="M300.998 287H317.855C318.579 287 319.088 286.719 318.987 286.375L317.871 282.586C317.776 282.264 317.129 282 316.429 282H300.181C299.484 282 298.954 282.262 299.003 282.586L299.587 286.375C299.641 286.719 300.276 287 301 287H300.998Z" fill="#D4D4D4"/>
<path d="M322.743 287H339.915C340.652 287 341.127 286.719 340.97 286.375L339.234 282.586C339.087 282.264 338.385 282 337.673 282H321.121C320.411 282 319.91 282.262 320.013 282.586L321.207 286.375C321.314 286.719 322.008 287 322.745 287H322.743Z" fill="#D4D4D4"/>
<path d="M347.758 293H365.944C366.725 293 367.171 292.718 366.938 292.375L364.361 288.585C364.141 288.262 363.349 288 362.597 288H345.095C344.343 288 343.865 288.262 344.034 288.585L346.013 292.375C346.192 292.718 346.978 293 347.76 293H347.758Z" fill="#D4D4D4"/>
<path d="M393.258 293H411.103C411.87 293 412.211 292.718 411.864 292.375L408.036 288.585C407.71 288.262 406.843 288 406.105 288H388.931C388.193 288 387.814 288.262 388.09 288.585L391.331 292.375C391.623 292.718 392.493 293 393.258 293Z" fill="#D4D4D4"/>
<path d="M368.086 290H386.383C386.87 290 387.121 289.83 386.942 289.625L385.845 288.366C385.67 288.164 385.134 288 384.653 288H366.649C366.169 288 365.895 288.164 366.038 288.366L366.934 289.625C367.08 289.83 367.599 290 368.086 290Z" fill="#D4D4D4"/>
<path d="M370.214 293H389.359C389.87 293 390.129 292.83 389.936 292.625L388.761 291.365C388.574 291.164 388.01 291 387.508 291H368.676C368.173 291 367.888 291.164 368.041 291.365L368.999 292.625C369.156 292.83 369.701 293 370.212 293H370.214Z" fill="#D4D4D4"/>
<path d="M324.931 293H342.876C343.648 293 344.138 292.718 343.965 292.375L342.073 288.585C341.911 288.262 341.174 288 340.434 288H323.163C322.421 288 321.904 288.262 322.015 288.585L323.316 292.375C323.434 292.718 324.162 293 324.933 293H324.931Z" fill="#D4D4D4"/>
<path d="M257.254 287H274.576C275.32 287 275.932 286.719 275.938 286.375L276 282.586C276.004 282.264 275.423 282 274.705 282H258.009C257.292 282 256.663 282.262 256.612 282.586L256.004 286.375C255.949 286.719 256.512 287 257.256 287H257.254Z" fill="#D4D4D4"/>
<path d="M235.131 287H251.932C252.653 287 253.291 286.719 253.35 286.375L253.996 282.586C254.051 282.264 253.527 282 252.83 282H236.636C235.941 282 235.289 282.262 235.19 282.586L234.014 286.375C233.907 286.719 234.411 287 235.133 287H235.131Z" fill="#D4D4D4"/>
<path d="M215.569 293H318.233C319.991 293 321.221 292.352 320.967 291.568L320.25 289.355C320.008 288.607 318.427 288 316.732 288H217.922C216.227 288 214.544 288.607 214.173 289.355L213.077 291.568C212.689 292.352 213.808 293 215.567 293H215.569Z" fill="#D4D4D4"/>
<path d="M214.071 287H231.187C231.922 287 232.618 286.719 232.731 286.375L233.985 282.586C234.092 282.264 233.6 282 232.89 282H216.391C215.684 282 214.978 282.262 214.827 282.586L213.032 286.375C212.871 286.719 213.338 287 214.073 287H214.071Z" fill="#D4D4D4"/>
<path d="M192.011 287H209.416C210.163 287 210.915 286.719 211.086 286.375L212.968 282.586C213.128 282.264 212.67 282 211.948 282H195.172C194.452 282 193.694 282.262 193.487 282.586L191.057 286.375C190.838 286.719 191.268 287 192.016 287H192.011Z" fill="#D4D4D4"/>
<path d="M190.055 293H208.24C209.022 293 209.808 292.718 209.987 292.375L211.966 288.585C212.135 288.262 211.657 288 210.905 288H193.404C192.652 288 191.86 288.262 191.64 288.585L189.062 292.375C188.828 292.718 189.275 293 190.057 293H190.055Z" fill="#D4D4D4"/>
<path d="M167.951 293H185.582C186.34 293 187.15 292.718 187.381 292.375L189.943 288.585C190.16 288.262 189.742 288 189.013 288H172.045C171.316 288 170.502 288.262 170.236 288.585L167.094 292.375C166.809 292.718 167.195 293 167.953 293H167.951Z" fill="#D4D4D4"/>
<path d="M144.897 293H162.742C163.509 293 164.377 292.718 164.669 292.375L167.91 288.585C168.186 288.262 167.807 288 167.069 288H149.895C149.157 288 148.29 288.262 147.963 288.585L144.136 292.375C143.788 292.718 144.131 293 144.897 293Z" fill="#D4D4D4"/>
<path d="M151.225 287H186.369C187.396 287 188.491 286.605 188.802 286.124L190.924 282.824C191.216 282.369 190.642 282 189.652 282H155.774C154.784 282 153.631 282.369 153.212 282.824L150.166 286.124C149.722 286.605 150.199 287 151.227 287H151.225Z" fill="#D4D4D4"/>
<path d="M279.354 287H296.73C297.476 287 298.046 286.719 297.997 286.375L297.453 282.586C297.406 282.264 296.781 282 296.06 282H279.312C278.593 282 278.004 282.262 278.004 282.586L278 286.375C278 286.719 278.61 287 279.357 287H279.354Z" fill="#D4D4D4"/>
</g>
<path opacity="0.3" d="M346.379 322H197.376C191.945 322 188.835 319.488 190.409 316.518L198.511 301.232C199.76 298.873 204.539 297 209.163 297H336.099C340.724 297 345.39 298.875 346.498 301.232L353.678 316.518C355.073 319.488 351.81 322 346.379 322Z" fill="#D4D4D4"/>
<path d="M461.499 26.166H451.916" stroke="#272525" stroke-width="1.5" stroke-linecap="round"/>
<path d="M446.166 12.75H458.624C459.514 12.75 459.96 12.75 460.333 12.7992C462.913 13.1389 464.944 15.1693 465.283 17.7495C465.333 18.1231 465.333 18.5682 465.333 19.4583" stroke="#272525" stroke-width="1.5"/>
<path d="M430.834 20.321C430.834 18.6295 430.834 17.7837 430.967 17.0792C431.552 13.9779 433.978 11.552 437.079 10.9669C437.784 10.834 438.629 10.834 440.321 10.834C441.062 10.834 441.433 10.834 441.789 10.8673C443.324 11.0109 444.781 11.6141 445.968 12.5983C446.243 12.8266 446.505 13.0886 447.029 13.6127L448.084 14.6673C449.648 16.2309 450.429 17.0127 451.366 17.5335C451.88 17.8197 452.425 18.0456 452.991 18.207C454.022 18.5007 455.127 18.5007 457.338 18.5007H458.055C463.1 18.5007 465.623 18.5007 467.262 19.9755C467.413 20.1111 467.557 20.2547 467.693 20.4055C469.167 22.0452 469.167 24.5679 469.167 29.6133V33.834C469.167 41.0622 469.167 44.6763 466.922 46.9218C464.676 49.1673 461.062 49.1673 453.834 49.1673H446.167C438.939 49.1673 435.325 49.1673 433.079 46.9218C430.834 44.6763 430.834 41.0622 430.834 33.834V20.321Z" fill="white" stroke="#272525" stroke-width="1.5"/>
<g clip-path="url(#clip0_7071_122339)">
<path d="M22 297.566L11.1635 297.565C9.95445 311.946 15.6983 316.028 20.2318 316.028L31.3154 317L42.9018 316.514C45.0848 316.352 50.0554 315.542 52.4736 313.599C54.8917 311.655 55.8321 303.071 56 299.022L55.4967 297.566C49.8544 296.011 46.0113 297.028 44.5 298L37.3603 304.852C35.1772 305.014 30.4081 305.241 28.7961 304.852C27.184 304.464 25.0228 299.996 22 297.566Z" fill="#1D1D1D"/>
<path d="M34 272L34 290M34 290L41 283.25M34 290L27 283.25" stroke="#1D1D1D" stroke-width="1.18987" stroke-linecap="round" stroke-linejoin="round"/>
<path d="M11 297H18.1106C20.1472 297 21.1655 297 22.0606 297.418C22.9558 297.836 23.6185 298.622 24.9439 300.193L26.3061 301.807C27.6315 303.378 28.2942 304.164 29.1894 304.582C30.0845 305 31.1028 305 33.1394 305H33.8606C35.8972 305 36.9155 305 37.8106 304.582C38.7058 304.164 39.3685 303.378 40.6939 301.807L42.0561 300.193C43.3815 298.622 44.0442 297.836 44.9394 297.418C45.8345 297 46.8528 297 48.8894 297H56" stroke="#1D1D1D" stroke-width="1.18987" stroke-linecap="round"/>
<path d="M44.75 272C48.4066 272.362 50.8679 273.18 52.705 275.029C56 278.345 56 283.682 56 294.356C56 305.031 56 310.368 52.705 313.684C49.4099 317 44.1066 317 33.5 317C22.8934 317 17.5901 317 14.295 313.684C11 310.368 11 305.031 11 294.356C11 283.682 11 278.345 14.295 275.029C16.1321 273.18 18.5934 272.362 22.25 272" stroke="#1D1D1D" stroke-width="1.18987" stroke-linecap="round"/>
</g>
<path d="M64 227.051V55.9488C64 51.0118 68.0219 47 72.9958 47H176.193L217.999 88.6098V227.051C217.999 231.988 213.977 236 209.004 236H72.9958C68.0239 236 64 231.99 64 227.051Z" fill="white" stroke="#969696" stroke-width="2"/>
<rect x="105" y="96" width="70.3913" height="46.2571" rx="4" stroke="black"/>
<path d="M112.039 118.347L117.323 113.781C120.072 111.406 124.216 111.542 126.799 114.093L139.74 126.871C141.813 128.919 145.076 129.198 147.475 127.533L148.375 126.909C151.827 124.513 156.497 124.791 159.633 127.578L169.358 136.22" stroke="#1D1D1D" stroke-width="1.3" stroke-linecap="round"/>
<ellipse cx="161.313" cy="110.08" rx="6.03354" ry="6.03354" stroke="#1D1D1D" stroke-width="1.3"/>
<rect x="88" y="155" width="105" height="48" rx="6" fill="#5F30E2"/>
<path d="M101.064 187.728V170.272H105.62V187.728H101.064Z" fill="white"/>
<path d="M108.827 187.728V170.272H112.615L118.632 181.043H117.765L123.757 170.272H127.446V187.728H123.336V177.354H123.856L119.35 185.153H116.874L112.368 177.329H112.937V187.728H108.827Z" fill="white"/>
<path d="M128.555 187.728L136.726 170.272H140.316L148.486 187.728H143.931L141.875 182.924L143.609 184.187H133.408L135.166 182.924L133.111 187.728H128.555ZM138.483 175.026L135.611 181.884L134.918 180.696H142.123L141.43 181.884L138.533 175.026H138.483Z" fill="white"/>
<path d="M158.021 188C156.024 188 154.324 187.629 152.921 186.886C151.535 186.143 150.478 185.103 149.752 183.766C149.026 182.429 148.662 180.869 148.662 179.087C148.662 177.238 149.042 175.637 149.801 174.283C150.577 172.913 151.683 171.857 153.119 171.114C154.555 170.371 156.288 170 158.319 170C159.127 170 159.92 170.074 160.695 170.223C161.471 170.355 162.181 170.561 162.825 170.842C163.485 171.106 164.046 171.42 164.508 171.783L163.122 175.298C162.346 174.803 161.579 174.448 160.819 174.234C160.06 174.003 159.235 173.887 158.343 173.887C156.676 173.887 155.43 174.333 154.605 175.224C153.796 176.099 153.391 177.387 153.391 179.087C153.391 180.77 153.804 182.041 154.629 182.9C155.455 183.758 156.676 184.187 158.294 184.187C158.789 184.187 159.325 184.138 159.903 184.039C160.497 183.939 161.092 183.799 161.686 183.618L160.844 185.326V181.092H157.353V177.898H164.558V186.663C163.947 186.944 163.279 187.183 162.552 187.381C161.843 187.579 161.1 187.728 160.324 187.827C159.565 187.942 158.797 188 158.021 188Z" fill="white"/>
<path d="M167.605 187.728V170.272H179.935V173.788H171.963V177.106H179.366V180.622H171.963V184.212H179.935V187.728H167.605Z" fill="white"/>
<path d="M178 78.4247V48.4142L216.586 87H186.575C181.84 87 178 83.1618 178 78.4247Z" fill="white" stroke="#969696" stroke-width="2"/>
<path d="M340 287.051V115.949C340 111.012 344.022 107 348.996 107H452.193L493.999 148.61V287.051C493.999 291.988 489.977 296 485.004 296H348.996C344.024 296 340 291.99 340 287.051Z" fill="white" stroke="#969696" stroke-width="2"/>
<line x1="375.6" y1="162.4" x2="448.4" y2="162.4" stroke="black" stroke-width="1.2" stroke-linecap="round"/>
<line x1="375.6" y1="172.4" x2="408.4" y2="172.4" stroke="black" stroke-width="1.2" stroke-linecap="round"/>
<line x1="415.6" y1="172.4" x2="448.4" y2="172.4" stroke="black" stroke-width="1.2" stroke-linecap="round"/>
<line x1="375.6" y1="182.4" x2="395.067" y2="182.4" stroke="black" stroke-width="1.2" stroke-linecap="round"/>
<line x1="402.267" y1="182.4" x2="421.734" y2="182.4" stroke="black" stroke-width="1.2" stroke-linecap="round"/>
<line x1="428.933" y1="182.4" x2="448.4" y2="182.4" stroke="black" stroke-width="1.2" stroke-linecap="round"/>
<line x1="375.6" y1="192.4" x2="426.4" y2="192.4" stroke="black" stroke-width="1.2" stroke-linecap="round"/>
<line x1="433.6" y1="192.4" x2="448.4" y2="192.4" stroke="black" stroke-width="1.2" stroke-linecap="round"/>
<line x1="375.6" y1="202.4" x2="390.4" y2="202.4" stroke="black" stroke-width="1.2" stroke-linecap="round"/>
<line x1="397.6" y1="202.4" x2="448.4" y2="202.4" stroke="black" stroke-width="1.2" stroke-linecap="round"/>
<rect x="364" y="231" width="105" height="48" rx="6" fill="#5F30E2"/>
<path d="M386.567 264.87V249.33H380.295V245.13H397.991V249.33H391.719V264.87H386.567Z" fill="white"/>
<path d="M399.938 264.87V245.13H413.882V249.106H404.866V252.858H413.238V256.834H404.866V260.894H413.882V264.87H399.938Z" fill="white"/>
<path d="M414.591 264.87L423.019 253.754V256.078L414.759 245.13H420.723L425.903 252.326H424.223L429.403 245.13H435.395L427.107 256.078V253.754L435.535 264.87H429.543L424.251 257.506H425.875L420.583 264.87H414.591Z" fill="white"/>
<path d="M441.282 264.87V249.33H435.01V245.13H452.706V249.33H446.434V264.87H441.282Z" fill="white"/>
<path d="M454 138.425V108.414L492.586 147H462.575C457.84 147 454 143.162 454 138.425Z" fill="white" stroke="#969696" stroke-width="2"/>
<defs>
<clipPath id="clip0_7071_122339">
<rect x="10" y="270" width="47" height="47" fill="white"/>
</clipPath>
</defs>
</svg>
